<?xml version="1.0" encoding="UTF-8"?>
<svg id="Ebene_1" xmlns="http://www.w3.org/2000/svg" version="1.1" viewBox="0 0 64.722 64.879">
  <!-- Generator: Adobe Illustrator 29.7.0, SVG Export Plug-In . SVG Version: 2.1.1 Build 138)  -->
  <path d="M51.409,64.879c-.609,0-1.412-.239-2.345-1.084l-13.01-11.786H5.034c-2.776,0-5.034-2.258-5.034-5.034V5.034C0,2.258,2.258,0,5.034,0h54.654c2.776,0,5.034,2.258,5.034,5.034v41.941c0,2.776-2.258,5.034-5.034,5.034h-5.89v9.687c0,2.03-.941,2.751-1.502,2.999-.213.094-.513.184-.886.184ZM5.034,2.157c-1.586,0-2.876,1.29-2.876,2.876v41.941c0,1.586,1.29,2.876,2.876,2.876h31.852l13.626,12.345c.531.481.856.537.917.524.032-.028.211-.308.211-1.024v-11.845h8.048c1.586,0,2.876-1.29,2.876-2.876V5.034c0-1.586-1.29-2.876-2.876-2.876H5.034Z" fill="#5d3f94"/>
  <path d="M28.972,8.967c.799-.074,1.888.57,2.235,1.301,1.352,3.458,1.988,7.539,3.37,10.94.956,2.352,1.895,1.736,1.708-.642-.142-1.816-2.033-7.545-1.775-8.615.451-1.867,3.058-1.051,3.597.386.633,3.545,2.276,7.374,2.785,10.885.491,3.382-1.772,4.215-3.231,6.837.468,1.594,2.564-.73,3.109-1.384,1.333-1.599,2.817-5.309,4.076-6.391,1.206-1.036,3.595-1.1,4,.672.387,1.695-1.28,4.639-1.88,6.359-2.731,7.83-4.242,14.627-14.635,14.003-9.217-.554-9.119-7.902-12.09-14.395-.868-1.896-4.298-6.938-4.411-8.423-.18-2.366,2.527-3.56,4.069-1.702,1.063,1.28,4.099,7.493,5.222,7.816,1.653.475.589-1.782.314-2.458-1.299-3.199-3.659-6.33-4.937-9.589-.563-2.254,2.572-4.08,3.922-1.998,1.852,2.858,2.871,8.012,4.857,10.735.563.772,1.438.906,1.48-.178l-3.85-12.203c-.036-.984,1.161-1.874,2.067-1.959Z" fill="#5d3f94"/>
</svg>