<?xml version="1.0" encoding="UTF-8"?>
<svg id="Ebene_1" xmlns="http://www.w3.org/2000/svg" version="1.1" viewBox="0 0 168.926 66.167">
  <!-- Generator: Adobe Illustrator 29.7.0, SVG Export Plug-In . SVG Version: 2.1.1 Build 138)  -->
  <g>
    <g>
      <path d="M75.687,65.79v-29.434c.159-.058.259.216.325.216h12.986c.983,0,4.189,1.243,5.152,1.774,8.589,4.734,9.015,19.34.957,24.679-1.456.965-5.069,2.548-6.758,2.548h-12.336c-.066,0-.166.274-.325.216ZM81.53,60.379h6.385c.376,0,1.976-.618,2.421-.826,7.141-3.335,5.693-18.22-3.503-18.22h-5.302v19.046Z"/>
      <polygon points="81.53 1.079 81.53 12.766 93.434 12.766 93.434 1.079 99.277 1.079 99.277 30.296 93.434 30.296 93.434 17.96 81.53 17.96 81.53 30.296 75.687 30.296 75.687 1.079 81.53 1.079"/>
      <path d="M123.733,24.02c-3.394,9.992-18.329,9.008-20.463-1.504-1.708-8.412,3.694-15.813,12.683-14.415,3.988.62,8.213,4.991,8.213,9.101v3.787h-15.366c.134,3.867,2.747,6.317,6.715,5.309,1.423-.362,2.52-2.279,2.699-2.279h5.519ZM118.323,17.094c-.385-6.453-8.705-6.207-9.306,0h9.306Z"/>
      <path d="M124.166,56.267h-14.933c-.515,4.564,4.872,7.271,8.232,4.229.246-.223.801-1.199.966-1.199h5.302c-1.123,3.482-3.726,5.897-7.346,6.613-9.55,1.891-15.254-7.019-12.409-15.656,2.931-8.899,16.381-9.42,19.547-.38.132.378.641,2.139.641,2.389v4.004ZM118.323,52.372c-.109-6.373-8.432-5.981-9.09,0h9.09Z"/>
      <path d="M156.802,7.851c16.032-1.579,16.391,24.637-.277,23.091-12.535-1.163-13.051-21.778.277-23.091ZM156.79,12.601c-2.148.372-3.631,2.783-3.837,4.82-.305,3.018-.116,7.407,3.285,8.614,8.54,3.032,9.604-15.001.552-13.434Z"/>
      <polygon points="130.551 43.715 135.423 59.946 140.398 43.715 146.458 43.715 138.862 65.551 132.486 65.729 124.599 43.715 130.551 43.715"/>
      <rect x="127.845" y=".213" width="5.844" height="30.083"/>
      <rect x="138.018" y=".213" width="5.844" height="30.083"/>
    </g>
    <path d="M51.409,64.879c-.609,0-1.412-.239-2.345-1.084l-13.01-11.786H5.034c-2.776,0-5.034-2.258-5.034-5.034V5.034C0,2.258,2.258,0,5.034,0h54.654c2.776,0,5.034,2.258,5.034,5.034v41.941c0,2.776-2.258,5.034-5.034,5.034h-5.89v9.687c0,2.03-.941,2.751-1.502,2.999-.213.094-.513.184-.886.184ZM5.034,2.157c-1.586,0-2.876,1.29-2.876,2.876v41.941c0,1.586,1.29,2.876,2.876,2.876h31.852l13.626,12.345c.531.481.856.537.917.524.032-.028.211-.308.211-1.024v-11.845h8.048c1.586,0,2.876-1.29,2.876-2.876V5.034c0-1.586-1.29-2.876-2.876-2.876H5.034Z" fill="#5d3f94"/>
  </g>
  <path d="M28.972,8.967c.799-.074,1.888.57,2.235,1.301,1.352,3.458,1.988,7.539,3.37,10.94.956,2.352,1.895,1.736,1.708-.642-.142-1.816-2.033-7.545-1.775-8.615.451-1.867,3.058-1.051,3.597.386.633,3.545,2.276,7.374,2.785,10.885.491,3.382-1.772,4.215-3.231,6.837.468,1.594,2.564-.73,3.109-1.384,1.333-1.599,2.817-5.309,4.076-6.391,1.206-1.036,3.595-1.1,4,.672.387,1.695-1.28,4.639-1.88,6.359-2.731,7.83-4.242,14.627-14.635,14.003-9.217-.554-9.119-7.902-12.09-14.395-.868-1.896-4.298-6.938-4.411-8.423-.18-2.366,2.527-3.56,4.069-1.702,1.063,1.28,4.099,7.493,5.222,7.816,1.653.475.589-1.782.314-2.458-1.299-3.199-3.659-6.33-4.937-9.589-.563-2.254,2.572-4.08,3.922-1.998,1.852,2.858,2.871,8.012,4.857,10.735.563.772,1.438.906,1.48-.178l-3.85-12.203c-.036-.984,1.161-1.874,2.067-1.959Z" fill="#5d3f94"/>
</svg>