<?xml version="1.0" encoding="UTF-8"?>
<svg id="Ebene_1" xmlns="http://www.w3.org/2000/svg" version="1.1" viewBox="0 0 25.336 29.511">
  <!-- Generator: Adobe Illustrator 29.7.0, SVG Export Plug-In . SVG Version: 2.1.1 Build 138)  -->
  <path d="M12.668,29.511c-.129,0-.258-.03-.377-.089C.689,23.643,0,22.512,0,9.264c0-1.34.07-3.411.187-4.557.027-.26.172-.493.393-.631s.495-.167.74-.076C7.849,6.402,11.798.624,11.963.377c.157-.235.421-.377.704-.377h.002c.283,0,.548.142.704.378.164.246,4.114,6.023,10.642,3.622.245-.091.518-.062.74.076s.367.371.393.631c.117,1.146.187,3.217.187,4.557,0,13.248-.689,14.378-12.291,20.158-.119.059-.248.089-.377.089ZM1.79,5.921c-.063,1.07-.098,2.393-.098,3.343,0,12.478.311,13.133,10.976,18.456,10.665-5.323,10.976-5.978,10.976-18.456,0-.95-.036-2.274-.098-3.343-5.515,1.461-9.37-2.008-10.878-3.722-1.256,1.427-4.14,4.072-8.255,4.073-.826,0-1.701-.107-2.623-.351Z"/>
  <path d="M11.654,19.135c-.216,0-.433-.083-.598-.248l-2.902-2.902c-.33-.33-.33-.866,0-1.196.33-.33.866-.33,1.196,0l2.304,2.303,5.205-5.205c.33-.33.866-.33,1.196,0,.33.33.33.866,0,1.196l-5.803,5.803c-.165.165-.382.248-.598.248Z"/>
</svg>