<?xml version="1.0" encoding="UTF-8"?>
<svg id="Ebene_1" xmlns="http://www.w3.org/2000/svg" version="1.1" viewBox="0 0 29.624 29.624">
  <!-- Generator: Adobe Illustrator 29.7.0, SVG Export Plug-In . SVG Version: 2.1.1 Build 138)  -->
  <path d="M18.012,29.624c-.044,0-.088,0-.132-.003-1.341-.055-2.437-.926-2.792-2.22l-2.36-8.594c-.254-.925-.986-1.657-1.911-1.911l-8.593-2.36C.929,14.182.057,13.086.003,11.745c-.055-1.341.724-2.504,1.985-2.964L25.562.187c1.117-.407,2.333-.138,3.173.703.841.841,1.11,2.057.703,3.173l-8.594,23.574c-.444,1.219-1.547,1.988-2.831,1.988ZM26.61,1.691c-.155,0-.313.028-.469.085L2.567,10.37c-.674.246-.894.836-.874,1.305s.286,1.04.978,1.23l8.593,2.36c1.498.411,2.683,1.597,3.095,3.094h0l2.36,8.594c.19.692.76.959,1.23.978.468.02,1.06-.201,1.305-.875L27.848,3.483c.182-.499.066-1.022-.309-1.398-.259-.259-.587-.394-.929-.394Z"/>
</svg>