<?xml version="1.0" encoding="UTF-8"?>
<svg id="Ebene_1" xmlns="http://www.w3.org/2000/svg" version="1.1" viewBox="0 0 21.267 5.772">
  <!-- Generator: Adobe Illustrator 29.7.0, SVG Export Plug-In . SVG Version: 2.1.1 Build 138)  -->
  <path d="M2.886,5.772c-1.591,0-2.886-1.295-2.886-2.886S1.295,0,2.886,0s2.886,1.295,2.886,2.886-1.295,2.886-2.886,2.886ZM2.886,1.075c-.998,0-1.811.812-1.811,1.811s.812,1.811,1.811,1.811,1.811-.812,1.811-1.811-.812-1.811-1.811-1.811Z"/>
  <path d="M10.633,5.772c-1.591,0-2.886-1.295-2.886-2.886s1.295-2.886,2.886-2.886,2.886,1.295,2.886,2.886-1.295,2.886-2.886,2.886ZM10.633,1.075c-.998,0-1.811.812-1.811,1.811s.812,1.811,1.811,1.811,1.811-.812,1.811-1.811-.812-1.811-1.811-1.811Z"/>
  <path d="M18.38,5.772c-1.591,0-2.886-1.295-2.886-2.886s1.295-2.886,2.886-2.886,2.886,1.295,2.886,2.886-1.295,2.886-2.886,2.886ZM18.38,1.075c-.998,0-1.811.812-1.811,1.811s.812,1.811,1.811,1.811,1.811-.812,1.811-1.811-.812-1.811-1.811-1.811Z"/>
</svg>