<?xml version="1.0" encoding="UTF-8"?>
<svg id="Ebene_1" xmlns="http://www.w3.org/2000/svg" version="1.1" viewBox="0 0 29.572 26.054">
  <!-- Generator: Adobe Illustrator 29.7.0, SVG Export Plug-In . SVG Version: 2.1.1 Build 138)  -->
  <path d="M26.715,26.054h-5.294c-1.575,0-2.857-1.282-2.857-2.857v-4.748c0-.643-.523-1.165-1.165-1.165h-5.226c-.643,0-1.165.523-1.165,1.165v4.748c0,1.575-1.282,2.857-2.857,2.857H2.857c-1.575,0-2.857-1.282-2.857-2.857v-10.42c0-.852.375-1.652,1.03-2.197L12.959.66c1.059-.881,2.595-.88,3.654,0l11.929,9.921c.655.544,1.03,1.345,1.03,2.197v10.42c0,1.575-1.282,2.857-2.857,2.857ZM12.173,15.592h5.226c1.575,0,2.857,1.282,2.857,2.857v4.748c0,.642.523,1.165,1.165,1.165h5.294c.642,0,1.165-.523,1.165-1.165v-10.42c0-.347-.153-.674-.42-.896L15.531,1.961c-.432-.359-1.058-.359-1.49,0L2.112,11.882c-.267.222-.42.549-.42.896v10.42c0,.642.523,1.165,1.165,1.165h5.294c.642,0,1.165-.523,1.165-1.165v-4.748c0-1.575,1.282-2.857,2.857-2.857Z"/>
</svg>