<?xml version="1.0" encoding="UTF-8"?>
<svg id="Ebene_1" xmlns="http://www.w3.org/2000/svg" version="1.1" viewBox="0 0 30.843 26.677">
  <!-- Generator: Adobe Illustrator 29.7.0, SVG Export Plug-In . SVG Version: 2.1.1 Build 138)  -->
  <path d="M15.421,26.677c-.71,0-1.42-.254-1.986-.763h0c-2.824-2.539-8.009-7.323-10.998-10.834-3.268-3.838-3.248-9.216.046-12.509C5.91-.857,11.486-.857,14.913,2.57l.508.508.508-.508c3.427-3.427,9.003-3.427,12.43,0,3.294,3.293,3.313,8.671.046,12.509-2.989,3.511-8.173,8.295-10.998,10.834-.566.509-1.276.763-1.986.763ZM14.566,24.656c.487.438,1.223.438,1.71,0,2.249-2.022,7.806-7.109,10.841-10.673,2.69-3.16,2.71-7.552.046-10.217-2.767-2.767-7.27-2.767-10.038,0l-1.106,1.106c-.33.33-.866.33-1.196,0l-1.106-1.106C10.95.999,6.447.999,3.68,3.766c-2.664,2.664-2.644,7.057.046,10.217,3.035,3.564,8.592,8.651,10.841,10.673h0Z"/>
</svg>