<?xml version="1.0" encoding="UTF-8"?>
<svg id="Ebene_1" xmlns="http://www.w3.org/2000/svg" version="1.1" viewBox="0 0 22.435 23.588">
  <!-- Generator: Adobe Illustrator 29.7.0, SVG Export Plug-In . SVG Version: 2.1.1 Build 138)  -->
  <path d="M1.513,23.588c-.221,0-.444-.049-.654-.15-.53-.253-.859-.775-.859-1.363V5.25C0,2.355,2.355,0,5.25,0h11.935c2.895,0,5.25,2.355,5.25,5.25v10.297c0,2.895-2.355,5.25-5.25,5.25H6.54c-.669,0-1.325.232-1.846.652l-2.235,1.803c-.276.222-.609.337-.945.337ZM5.25,1.461c-2.089,0-3.788,1.699-3.788,3.788v16.826c0,.014,0,.031.028.044.028.014.041.003.052-.006l2.235-1.803c.78-.629,1.761-.976,2.763-.976h10.645c2.089,0,3.788-1.699,3.788-3.788V5.25c0-2.089-1.699-3.788-3.788-3.788H5.25Z"/>
</svg>