<?xml version="1.0" encoding="UTF-8"?>
<svg id="Ebene_1" xmlns="http://www.w3.org/2000/svg" version="1.1" viewBox="0 0 26.642 23.044">
  <!-- Generator: Adobe Illustrator 29.7.0, SVG Export Plug-In . SVG Version: 2.1.1 Build 138)  -->
  <path d="M13.321,23.044c-.613,0-1.227-.22-1.715-.659h0c-2.44-2.193-6.918-6.326-9.5-9.359-2.823-3.315-2.805-7.961.04-10.806,2.96-2.96,7.777-2.96,10.737,0l.439.439.439-.439c2.96-2.96,7.777-2.96,10.737,0,2.845,2.845,2.862,7.49.04,10.806-2.582,3.033-7.06,7.165-9.5,9.359-.489.44-1.102.659-1.716.659ZM12.582,21.298c.421.379,1.056.379,1.477,0,1.942-1.746,6.743-6.14,9.364-9.219,2.324-2.73,2.341-6.524.04-8.825-2.391-2.39-6.28-2.39-8.671,0l-.955.955c-.285.285-.748.285-1.033,0l-.955-.955C9.459.863,5.569.863,3.178,3.253c-2.301,2.301-2.284,6.095.04,8.825,2.621,3.079,7.422,7.473,9.364,9.219h0Z"/>
</svg>