<?xml version="1.0" encoding="UTF-8"?>
<svg id="Ebene_1" xmlns="http://www.w3.org/2000/svg" version="1.1" viewBox="0 0 16.607 21.426">
  <!-- Generator: Adobe Illustrator 29.7.0, SVG Export Plug-In . SVG Version: 2.1.1 Build 138)  -->
  <g id="E4Yh8m">
    <g>
      <path d="M2.211,6.404c.737-.101,3.79-.346,3.021,1.127-.525,1.004-2.933-.24-3.528.93l-.029,10.683c.01.331.279.602.613.613h12.05c.331-.01.602-.279.613-.613l-.029-10.683c-.595-1.17-3.005.074-3.528-.93-.735-1.409,1.972-1.224,2.72-1.159,1.196.103,2.13.735,2.395,1.952-.241,3.525.312,7.454.002,10.931-.096,1.081-.886,1.902-1.955,2.058-3.99-.268-8.442.355-12.377.004-1.041-.093-1.943-.897-2.058-1.955-.375-3.47.275-7.6.007-11.14.281-.991,1.06-1.677,2.084-1.817Z"/>
      <path d="M9.149,2.697v10.422c0,.05-.306.463-.382.509-.39.237-1.178.012-1.178-.397V2.697c-.729.423-2.021,2.422-2.832,2.34-.655-.066-.919-.873-.461-1.342L7.861.127c.258-.17.646-.17.904,0l3.818,3.875c.076.252.024.606-.15.808-.878,1.022-2.551-1.76-3.284-2.114Z"/>
    </g>
  </g>
</svg>