<?xml version="1.0" encoding="UTF-8"?>
<svg id="Ebene_1" xmlns="http://www.w3.org/2000/svg" version="1.1" viewBox="0 0 21.272 25.07">
  <!-- Generator: Adobe Illustrator 29.7.0, SVG Export Plug-In . SVG Version: 2.1.1 Build 138)  -->
  <path d="M19.851,13.561c-.064,0-.129-.006-.195-.018-.5-.092-.858-.529-.852-1.037v-.012c0-2.07-1.64-3.682-3.989-3.919-2-.202-3.446-.24-4.311-.234-.04,0-.073.029-.078.068l-.139,1.038c-.074.552-.442,1.022-.96,1.227-.518.204-1.108.113-1.54-.239l-4.276-3.487c-.47-.383-.74-.951-.74-1.558s.27-1.175.74-1.558L7.788.346c.432-.352,1.022-.443,1.54-.239.518.205.886.675.96,1.227l.138,1.029c.005.038.038.067.077.068.723.022,1.98.092,3.866.297,4.013.436,7.044,3.867,6.899,7.812-.03.805-.185,1.594-.461,2.346-.153.416-.53.674-.955.674ZM20.266,12.518v.005h0s0-.003,0-.005ZM19.535,12.514h.002-.002ZM10.651,6.879c.912,0,2.362.044,4.312.242,2.248.227,4.044,1.497,4.847,3.259.058-3.137-2.381-5.848-5.6-6.198-1.839-.2-3.056-.267-3.753-.289-.757-.023-1.38-.584-1.48-1.335l-.138-1.029c-.002-.014-.006-.046-.049-.063-.043-.017-.068.003-.078.012l-4.276,3.487c-.176.143-.202.328-.202.426s.026.282.202.425l4.276,3.487c.011.009.036.029.078.012.043-.017.047-.049.049-.063l.139-1.038c.101-.757.754-1.331,1.518-1.335.05,0,.101,0,.155,0Z"/>
  <path d="M12.51,25.07c-.191,0-.383-.035-.566-.108-.518-.205-.886-.675-.96-1.227l-.138-1.029c-.005-.038-.038-.067-.077-.068-.722-.022-1.978-.092-3.866-.297C2.891,21.904-.14,18.473.005,14.529c.03-.806.185-1.595.461-2.346.176-.479.649-.748,1.15-.656.5.092.858.529.852,1.037h0s0,.012,0,.012c0,2.07,1.64,3.682,3.989,3.919,2,.202,3.447.24,4.311.234.04,0,.073-.029.078-.068l.139-1.038c.074-.552.442-1.022.96-1.227s1.108-.114,1.54.238l4.276,3.487c.47.384.74.951.74,1.558s-.27,1.174-.74,1.558l-4.276,3.487c-.279.228-.624.346-.974.346ZM1.462,14.69c-.058,3.137,2.381,5.848,5.599,6.197,1.841.2,3.057.268,3.753.289.757.024,1.38.585,1.48,1.335l.138,1.029c.002.014.006.046.049.063s.068-.004.078-.012l4.276-3.487c.176-.143.202-.328.202-.426s-.026-.282-.202-.426l-4.276-3.487c-.011-.009-.036-.029-.078-.012s-.047.049-.049.062l-.139,1.038c-.101.757-.754,1.331-1.518,1.335-.897.006-2.403-.032-4.467-.241-2.248-.227-4.044-1.497-4.847-3.259ZM1.737,12.555h.002-.002ZM1.007,12.546s0,.002,0,.004v-.004Z"/>
</svg>