<?xml version="1.0" encoding="UTF-8"?>
<svg id="Ebene_1" xmlns="http://www.w3.org/2000/svg" version="1.1" viewBox="0 0 23.218 29.212">
  <!-- Generator: Adobe Illustrator 29.7.0, SVG Export Plug-In . SVG Version: 2.1.1 Build 138)  -->
  <path d="M11.609,29.212c-6.034,0-8.843-.6-10.364-2.214C.292,25.986-.097,24.598.02,22.628c.086-1.447.402-2.677.964-3.76,1.012-1.947,3.738-5.214,10.625-5.214s9.613,3.267,10.625,5.215c.562,1.082.878,2.312.964,3.759.117,1.97-.272,3.358-1.225,4.37-1.521,1.614-4.33,2.214-10.364,2.214ZM11.609,15.346c-2.573,0-7.179.559-9.124,4.303-.451.867-.705,1.875-.776,3.08-.089,1.492.148,2.451.767,3.109,1.126,1.195,3.772,1.683,9.133,1.683s8.007-.488,9.133-1.683c.62-.658.856-1.616.767-3.109-.072-1.206-.326-2.213-.776-3.08-1.945-3.744-6.551-4.303-9.124-4.303Z"/>
  <path d="M11.609,11.417c-1.693,0-3.288-.745-4.377-2.044-.859-1.024-1.332-2.325-1.332-3.664,0-3.147,2.561-5.708,5.708-5.708s5.709,2.561,5.709,5.708c0,1.339-.473,2.64-1.332,3.665-1.088,1.299-2.684,2.044-4.377,2.044ZM11.609,1.692c-2.215,0-4.017,1.802-4.017,4.017,0,.942.333,1.857.936,2.578.766.915,1.889,1.439,3.08,1.439s2.315-.525,3.081-1.439c.604-.72.937-1.636.937-2.578,0-2.215-1.802-4.017-4.017-4.017Z"/>
</svg>