<?xml version="1.0" encoding="UTF-8"?>
<svg id="Ebene_1" xmlns="http://www.w3.org/2000/svg" version="1.1" viewBox="0 0 28.116 28.11">
  <!-- Generator: Adobe Illustrator 29.7.0, SVG Export Plug-In . SVG Version: 2.1.1 Build 138)  -->
  <path d="M24.859,28.11c-.856,0-1.694-.336-2.313-.955l-7.169-7.169c-.33-.33-.33-.866,0-1.196.33-.33.866-.33,1.196,0l7.17,7.169c.396.396.978.552,1.521.407.263-.071.506-.211.701-.406.297-.297.46-.692.461-1.111,0-.42-.163-.814-.459-1.11l-7.169-7.17c-.33-.33-.33-.866,0-1.196.33-.33.866-.33,1.196,0l7.168,7.169c.616.615.955,1.435.955,2.306,0,.872-.34,1.691-.956,2.307-.404.404-.909.696-1.459.844-.278.074-.561.111-.842.111Z"/>
  <path d="M10.832,21.659c-2.893,0-5.614-1.127-7.659-3.173-2.046-2.046-3.173-4.766-3.173-7.659S1.127,5.213,3.173,3.168C7.396-1.056,14.268-1.056,18.492,3.168c2.046,2.046,3.173,4.766,3.173,7.66s-1.127,5.614-3.173,7.659h0s0,0,0,0c-2.046,2.046-4.766,3.173-7.659,3.173ZM10.832,1.691c-2.341,0-4.681.891-6.463,2.673-1.726,1.727-2.677,4.022-2.677,6.463s.951,4.737,2.677,6.463,4.022,2.677,6.463,2.677,4.737-.951,6.463-2.677h0c1.726-1.726,2.677-4.022,2.677-6.463s-.951-4.737-2.677-6.463c-1.782-1.782-4.123-2.673-6.463-2.673Z"/>
  <path d="M5.69,11.673c-.467,0-.846-.379-.846-.846,0-3.302,2.686-5.988,5.988-5.988.467,0,.846.379.846.846s-.379.846-.846.846c-2.369,0-4.296,1.927-4.296,4.296,0,.467-.379.846-.846.846Z"/>
</svg>