<?xml version="1.0" encoding="UTF-8"?>
<svg id="Ebene_1" xmlns="http://www.w3.org/2000/svg" version="1.1" viewBox="0 0 27.68 28.964">
  <!-- Generator: Adobe Illustrator 29.7.0, SVG Export Plug-In . SVG Version: 2.1.1 Build 138)  -->
  <path d="M15.77,28.964h-3.859c-1.268,0-2.327-.951-2.464-2.211l-.112-1.033c-.027-.249-.172-.472-.389-.597l-1.872-1.082c-.217-.125-.483-.139-.712-.038l-.949.419c-1.161.512-2.514.071-3.149-1.028l-1.929-3.342c-.634-1.098-.34-2.491.683-3.24l.836-.612c.202-.148.322-.385.322-.635v-2.167c0-.25-.121-.488-.323-.636l-.834-.609C-.007,11.405-.301,10.012.334,8.912l1.93-3.343c.634-1.098,1.986-1.54,3.146-1.029l.953.42c.229.101.495.087.711-.039l1.871-1.081c.217-.125.362-.348.389-.597l.111-1.03c.136-1.262,1.196-2.213,2.465-2.213h3.86c1.268,0,2.327.951,2.464,2.211l.112,1.034c.027.248.172.471.389.597l1.872,1.082c.217.125.483.14.712.038l.948-.419c1.161-.514,2.515-.072,3.149,1.028l1.93,3.342c.634,1.098.341,2.49-.682,3.24l-.838.614c-.202.148-.322.385-.322.635v2.164c0,.25.121.488.323.636l.835.61c1.025.749,1.319,2.142.685,3.241h0l-1.93,3.342c-.634,1.098-1.987,1.541-3.147,1.029l-.951-.42c-.229-.101-.495-.087-.712.039l-1.873,1.082c-.217.125-.362.348-.389.597l-.111,1.03c-.136,1.262-1.196,2.213-2.465,2.213ZM6.677,22.245c.43,0,.86.111,1.241.331l1.873,1.082c.682.394,1.139,1.096,1.225,1.879l.112,1.033c.044.4.38.702.783.702h3.859c.403,0,.739-.302.783-.703l.111-1.03c.085-.783.542-1.486,1.224-1.88l1.873-1.082c.682-.394,1.52-.44,2.241-.122l.951.42c.368.162.798.022.999-.327l1.93-3.342c.202-.349.108-.792-.217-1.029l-.835-.61c-.637-.465-1.017-1.213-1.017-2.002v-2.164c0-.787.379-1.535,1.014-2l.838-.614c.325-.238.418-.68.217-1.029l-1.93-3.342c-.201-.349-.632-.489-1-.326l-.948.419c-.722.319-1.56.274-2.243-.121l-1.871-1.082c-.681-.394-1.139-1.096-1.224-1.878l-.112-1.034c-.044-.4-.38-.702-.783-.702h-3.86c-.403,0-.74.302-.783.703l-.111,1.03c-.084.784-.542,1.487-1.225,1.881l-1.871,1.081c-.682.394-1.519.44-2.239.122l-.953-.42c-.368-.163-.798-.022-.999.327l-1.93,3.343c-.201.349-.108.792.217,1.029l.834.609c.636.465,1.016,1.213,1.016,2.001v2.167c0,.787-.379,1.535-1.015,2l-.836.612c-.325.238-.418.68-.217,1.029l1.929,3.342c.202.349.632.489,1,.327l.949-.419c.319-.141.66-.211,1.001-.211ZM26.614,19.628h.002-.002Z"/>
  <path d="M13.84,20.777c-3.471,0-6.296-2.824-6.296-6.296s2.824-6.296,6.296-6.296,6.296,2.824,6.296,6.296-2.824,6.296-6.296,6.296ZM13.84,9.878c-2.539,0-4.604,2.065-4.604,4.604s2.065,4.604,4.604,4.604,4.604-2.065,4.604-4.604-2.065-4.604-4.604-4.604Z"/>
</svg>